<?xml version="1.0" encoding="UTF-8" ?>
<!DOCTYPE svg PUBLIC "-//W3C//DTD SVG 1.1//EN" "http://www.w3.org/Graphics/SVG/1.1/DTD/svg11.dtd">
<svg width="1181pt" height="1181pt" viewBox="0 0 1181 1181" version="1.1" xmlns="http://www.w3.org/2000/svg">
<g id="#3184f1ff">
<path fill="#3184f1" opacity="1.00" d=" M 564.45 42.60 C 641.06 38.61 718.43 51.25 789.88 79.17 C 898.62 121.23 993.27 199.03 1055.14 297.90 C 1067.05 317.38 1078.79 337.07 1088.08 357.98 C 1146.66 482.90 1155.26 630.20 1112.55 761.32 C 1090.54 829.92 1054.10 893.60 1007.31 948.29 C 948.26 1017.06 872.10 1071.19 787.29 1103.34 C 723.89 1127.62 655.88 1139.76 588.00 1139.07 C 517.15 1139.49 446.40 1125.08 380.94 1098.12 C 358.08 1088.32 335.26 1078.16 314.15 1064.89 C 242.68 1023.56 180.99 965.54 134.96 897.02 C 97.68 841.01 70.30 778.31 55.39 712.66 C 33.95 615.67 37.77 512.75 69.64 418.47 C 91.79 350.38 127.84 286.83 174.66 232.68 C 201.05 202.72 229.87 174.78 261.99 150.98 C 299.95 123.10 341.00 99.14 384.93 81.92 C 441.99 58.76 502.92 45.45 564.45 42.60 M 498.43 185.71 C 450.35 191.39 402.96 218.31 379.92 261.94 C 368.38 284.11 363.00 309.71 366.27 334.60 C 368.14 355.34 375.18 376.14 388.89 392.10 C 404.62 410.26 426.54 421.12 447.93 431.10 C 479.17 445.17 512.00 455.22 544.69 465.26 C 588.83 479.73 634.26 492.05 674.87 515.21 C 693.49 525.36 710.14 540.95 717.79 561.08 C 729.44 588.70 727.22 621.33 714.02 648.01 C 706.32 664.02 693.53 676.80 679.91 687.88 C 661.02 703.02 641.83 717.78 623.10 733.11 C 620.29 736.69 615.98 733.44 612.96 732.10 C 584.69 715.99 557.72 697.46 528.01 683.98 C 474.46 658.22 412.95 655.98 354.99 663.91 C 327.34 668.72 300.21 678.17 276.69 693.66 C 248.39 711.64 225.48 736.74 205.14 763.11 C 193.72 778.40 181.91 793.83 174.71 811.66 C 169.16 826.81 163.97 842.65 165.03 859.01 C 164.95 872.66 168.97 886.00 174.92 898.16 C 182.36 912.85 195.61 924.28 211.01 929.96 C 221.24 933.63 232.55 932.38 242.90 929.90 C 263.00 923.37 279.70 908.94 292.54 892.50 C 314.67 867.20 335.84 841.10 356.80 814.84 C 377.19 787.03 401.02 761.48 417.61 731.07 C 410.28 731.07 402.92 730.76 395.65 731.67 C 389.33 732.79 385.73 738.77 382.71 743.81 C 375.49 755.88 366.07 766.38 357.38 777.38 C 331.07 807.68 307.44 840.17 282.81 871.81 C 273.65 883.94 262.30 894.41 249.33 902.34 C 241.50 906.13 232.98 910.13 224.03 908.84 C 213.06 908.69 202.35 902.71 196.87 893.11 C 183.60 872.10 185.03 845.22 192.42 822.34 C 200.12 799.24 217.56 781.25 234.98 764.99 C 275.51 728.27 331.03 706.76 386.01 712.84 C 422.91 714.90 455.98 733.53 486.83 752.26 C 515.76 768.63 539.16 792.91 567.63 809.97 C 603.57 777.99 643.00 750.33 681.10 721.06 C 702.82 703.56 723.30 683.96 738.12 660.11 C 752.28 637.12 761.99 611.27 765.67 584.48 C 771.54 544.88 760.29 502.03 731.92 473.08 C 713.94 453.40 688.39 443.97 667.13 428.67 C 669.02 424.85 671.18 421.16 673.54 417.61 C 693.05 389.24 718.82 365.62 737.06 336.34 C 732.98 333.45 729.18 330.12 724.83 327.66 C 717.76 330.74 712.18 336.42 706.70 341.70 C 693.72 354.22 683.20 368.93 672.17 383.12 C 662.24 395.88 653.13 409.24 643.22 422.01 C 628.39 419.16 614.39 413.36 600.04 408.84 C 560.75 395.46 522.19 380.00 482.65 367.34 C 458.66 359.03 433.41 349.38 416.55 329.47 C 400.95 310.30 398.75 281.87 410.20 260.13 C 425.37 230.38 462.62 215.39 494.54 223.55 C 510.50 226.68 524.66 235.71 536.76 246.24 C 561.02 269.22 579.40 297.94 592.36 328.64 C 605.08 323.52 615.32 314.23 626.28 306.29 C 647.95 290.12 668.57 272.54 688.38 254.14 C 684.17 249.87 680.89 244.50 675.76 241.29 C 669.06 240.78 663.77 246.43 658.24 249.29 C 656.64 250.12 654.40 251.93 652.83 250.19 C 644.74 242.53 639.63 232.19 630.93 225.11 C 608.81 206.72 582.07 194.10 554.01 187.93 C 535.88 183.25 516.91 184.72 498.43 185.71 M 326.68 301.68 C 319.56 309.29 320.19 320.60 318.37 330.17 C 315.80 346.11 315.92 362.28 314.48 378.33 C 313.71 391.08 315.82 403.72 316.87 416.38 C 320.84 443.39 332.52 469.63 351.77 489.23 C 373.94 510.72 401.49 525.58 429.89 537.12 C 484.05 558.39 541.14 571.12 595.15 592.83 C 610.48 598.98 626.05 605.44 638.77 616.24 C 642.47 619.53 645.46 623.98 645.93 629.02 C 646.30 637.17 646.82 646.54 641.20 653.20 C 631.08 665.53 618.53 675.71 609.53 689.01 C 615.75 691.53 622.29 695.55 629.30 693.29 C 638.84 689.64 645.93 681.96 652.44 674.41 C 663.62 661.54 676.04 649.38 684.05 634.15 C 692.53 617.20 694.31 597.08 689.20 578.85 C 683.66 555.82 662.42 540.84 641.71 532.26 C 627.33 526.68 612.66 521.62 597.53 518.45 C 599.37 513.02 601.91 507.86 603.48 502.35 C 596.48 499.45 589.31 496.84 581.86 495.40 C 578.84 500.11 575.66 504.93 570.83 508.00 C 564.82 507.95 559.45 505.12 554.00 502.99 C 507.67 483.53 457.40 474.14 413.00 449.97 C 393.86 439.71 377.45 424.56 365.51 406.44 C 352.29 384.40 346.72 358.47 346.18 332.97 C 345.62 320.87 347.32 308.78 346.23 296.71 C 339.74 297.68 331.56 296.06 326.68 301.68 M 894.16 440.80 C 901.26 444.85 911.43 445.61 915.12 453.92 C 917.46 458.21 919.56 462.90 919.00 467.96 C 919.11 511.31 918.88 554.66 919.08 598.01 C 919.09 608.83 918.57 621.44 910.97 629.98 C 906.86 634.86 899.55 635.05 893.93 633.08 C 887.07 628.38 887.41 618.09 880.99 612.99 C 875.67 608.62 865.56 611.74 865.01 618.99 C 863.86 626.07 870.46 630.37 875.74 633.27 C 890.31 638.68 907.03 637.60 921.13 631.22 C 929.13 628.34 935.58 622.14 940.15 615.12 C 946.61 604.57 945.68 591.82 946.03 580.01 C 946.11 545.00 945.81 509.99 946.06 474.98 C 946.41 465.95 946.08 455.71 952.43 448.43 C 957.13 443.19 964.89 443.87 970.89 440.94 C 945.35 439.32 919.70 439.57 894.16 440.80 M 804.25 513.27 C 785.42 531.07 783.31 561.80 796.64 583.37 C 803.42 592.49 812.79 600.23 823.97 603.08 C 839.50 606.54 857.42 606.72 870.70 596.68 C 877.00 591.36 881.20 583.53 882.02 575.30 C 876.46 582.28 873.14 591.95 863.88 594.90 C 846.39 601.04 823.60 593.75 815.99 576.03 C 809.96 564.71 809.21 551.55 808.67 539.02 C 832.44 538.87 856.22 539.33 879.99 538.65 C 880.08 527.11 875.50 514.97 866.04 507.96 C 848.20 493.36 820.08 497.53 804.25 513.27 M 976.30 501.64 C 980.80 504.13 986.03 505.53 989.94 508.96 C 992.53 513.24 992.76 518.50 993.61 523.31 C 995.03 543.96 992.74 564.72 994.71 585.35 C 997.75 599.29 1013.92 605.91 1027.00 605.04 C 1039.57 606.02 1050.75 599.78 1061.69 594.63 C 1062.07 597.27 1062.84 602.57 1063.23 605.21 C 1074.04 604.99 1084.93 604.62 1095.58 602.49 C 1091.25 600.33 1086.42 598.69 1083.33 594.72 C 1080.54 590.75 1080.30 585.70 1080.00 581.03 C 1079.82 554.34 1080.12 527.65 1080.00 500.96 C 1068.18 500.91 1056.34 500.82 1044.59 502.08 C 1048.62 503.79 1053.03 504.89 1056.71 507.38 C 1060.97 510.49 1060.75 516.47 1061.59 521.12 C 1062.53 537.83 1062.36 554.63 1061.39 571.34 C 1060.42 578.69 1059.81 587.48 1053.29 592.31 C 1043.73 601.25 1027.85 601.11 1017.70 593.29 C 1012.76 587.44 1012.64 579.26 1012.10 572.03 C 1011.55 548.42 1012.49 524.80 1011.68 501.20 C 999.88 500.80 988.07 500.93 976.30 501.64 M 510.21 584.80 C 495.38 607.84 474.73 626.63 461.54 650.77 C 469.90 652.41 478.31 653.83 486.75 655.03 C 500.27 633.01 518.53 614.51 533.35 593.44 C 525.82 590.09 518.07 587.28 510.21 584.80 Z" />
<path fill="#3184f1" opacity="1.00" d=" M 823.20 507.22 C 831.41 498.92 846.57 500.27 854.12 508.87 C 859.69 516.09 860.61 525.29 862.31 533.92 C 845.07 535.14 827.72 535.76 810.51 533.97 C 811.49 523.93 815.55 514.03 823.20 507.22 Z" />
</g>
<g id="#fdfeffff">
<path fill="#fdfeff" opacity="1.00" d=" M 498.43 185.71 C 516.91 184.72 535.88 183.25 554.01 187.93 C 582.07 194.10 608.81 206.72 630.93 225.11 C 639.63 232.19 644.74 242.53 652.83 250.19 C 654.40 251.93 656.64 250.12 658.24 249.29 C 663.77 246.43 669.06 240.78 675.76 241.29 C 680.89 244.50 684.17 249.87 688.38 254.14 C 668.57 272.54 647.95 290.12 626.28 306.29 C 615.32 314.23 605.08 323.52 592.36 328.64 C 579.40 297.94 561.02 269.22 536.76 246.24 C 524.66 235.71 510.50 226.68 494.54 223.55 C 462.62 215.39 425.37 230.38 410.20 260.13 C 398.75 281.87 400.95 310.30 416.55 329.47 C 433.41 349.38 458.66 359.03 482.65 367.34 C 522.19 380.00 560.75 395.46 600.04 408.84 C 614.39 413.36 628.39 419.16 643.22 422.01 C 653.13 409.24 662.24 395.88 672.17 383.12 C 683.20 368.93 693.72 354.22 706.70 341.70 C 712.18 336.42 717.76 330.74 724.83 327.66 C 729.18 330.12 732.98 333.45 737.06 336.34 C 718.82 365.62 693.05 389.24 673.54 417.61 C 671.18 421.16 669.02 424.85 667.13 428.67 C 688.39 443.97 713.94 453.40 731.92 473.08 C 760.29 502.03 771.54 544.88 765.67 584.48 C 761.99 611.27 752.28 637.12 738.12 660.11 C 723.30 683.96 702.82 703.56 681.10 721.06 C 643.00 750.33 603.57 777.99 567.63 809.97 C 539.16 792.91 515.76 768.63 486.83 752.26 C 455.98 733.53 422.91 714.90 386.01 712.84 C 331.03 706.76 275.51 728.27 234.98 764.99 C 217.56 781.25 200.12 799.24 192.42 822.34 C 185.03 845.22 183.60 872.10 196.87 893.11 C 202.35 902.71 213.06 908.69 224.03 908.84 C 232.98 910.13 241.50 906.13 249.33 902.34 C 262.30 894.41 273.65 883.94 282.81 871.81 C 307.44 840.17 331.07 807.68 357.38 777.38 C 366.07 766.38 375.49 755.88 382.71 743.81 C 385.73 738.77 389.33 732.79 395.65 731.67 C 402.92 730.76 410.28 731.07 417.61 731.07 C 401.02 761.48 377.19 787.03 356.80 814.84 C 335.84 841.10 314.67 867.20 292.54 892.50 C 279.70 908.94 263.00 923.37 242.90 929.90 C 232.55 932.38 221.24 933.63 211.01 929.96 C 195.61 924.28 182.36 912.85 174.92 898.16 C 168.97 886.00 164.95 872.66 165.03 859.01 C 163.97 842.65 169.16 826.81 174.71 811.66 C 181.91 793.83 193.72 778.40 205.14 763.11 C 225.48 736.74 248.39 711.64 276.69 693.66 C 300.21 678.17 327.34 668.72 354.99 663.91 C 412.95 655.98 474.46 658.22 528.01 683.98 C 557.72 697.46 584.69 715.99 612.96 732.10 C 615.98 733.44 620.29 736.69 623.10 733.11 C 641.83 717.78 661.02 703.02 679.91 687.88 C 693.53 676.80 706.32 664.02 714.02 648.01 C 727.22 621.33 729.44 588.70 717.79 561.08 C 710.14 540.95 693.49 525.36 674.87 515.21 C 634.26 492.05 588.83 479.73 544.69 465.26 C 512.00 455.22 479.17 445.17 447.93 431.10 C 426.54 421.12 404.62 410.26 388.89 392.10 C 375.18 376.14 368.14 355.34 366.27 334.60 C 363.00 309.71 368.38 284.11 379.92 261.94 C 402.96 218.31 450.35 191.39 498.43 185.71 Z" />
<path fill="#fdfeff" opacity="1.00" d=" M 326.68 301.68 C 331.56 296.06 339.74 297.68 346.23 296.71 C 347.32 308.78 345.62 320.87 346.18 332.97 C 346.72 358.47 352.29 384.40 365.51 406.44 C 377.45 424.56 393.86 439.71 413.00 449.97 C 457.40 474.14 507.67 483.53 554.00 502.99 C 559.45 505.12 564.82 507.95 570.83 508.00 C 575.66 504.93 578.84 500.11 581.86 495.40 C 589.31 496.84 596.48 499.45 603.48 502.35 C 601.91 507.86 599.37 513.02 597.53 518.45 C 612.66 521.62 627.33 526.68 641.71 532.26 C 662.42 540.84 683.66 555.82 689.20 578.85 C 694.31 597.08 692.53 617.20 684.05 634.15 C 676.04 649.38 663.62 661.54 652.44 674.41 C 645.93 681.96 638.84 689.64 629.30 693.29 C 622.29 695.55 615.75 691.53 609.53 689.01 C 618.53 675.71 631.08 665.53 641.20 653.20 C 646.82 646.54 646.30 637.17 645.93 629.02 C 645.46 623.98 642.47 619.53 638.77 616.24 C 626.05 605.44 610.48 598.98 595.15 592.83 C 541.14 571.12 484.05 558.39 429.89 537.12 C 401.49 525.58 373.94 510.72 351.77 489.23 C 332.52 469.63 320.84 443.39 316.87 416.38 C 315.82 403.72 313.71 391.08 314.48 378.33 C 315.92 362.28 315.80 346.11 318.37 330.17 C 320.19 320.60 319.56 309.29 326.68 301.68 Z" />
<path fill="#fdfeff" opacity="1.00" d=" M 894.16 440.80 C 919.70 439.57 945.35 439.32 970.89 440.94 C 964.89 443.87 957.13 443.19 952.43 448.43 C 946.08 455.71 946.41 465.95 946.06 474.98 C 945.81 509.99 946.11 545.00 946.03 580.01 C 945.68 591.82 946.61 604.57 940.15 615.12 C 935.58 622.14 929.13 628.34 921.13 631.22 C 907.03 637.60 890.31 638.68 875.74 633.27 C 870.46 630.37 863.86 626.07 865.01 618.99 C 865.56 611.74 875.67 608.62 880.99 612.99 C 887.41 618.09 887.07 628.38 893.93 633.08 C 899.55 635.05 906.86 634.86 910.97 629.98 C 918.57 621.44 919.09 608.83 919.08 598.01 C 918.88 554.66 919.11 511.31 919.00 467.96 C 919.56 462.90 917.46 458.21 915.12 453.92 C 911.43 445.61 901.26 444.85 894.16 440.80 Z" />
<path fill="#fdfeff" opacity="1.00" d=" M 804.25 513.27 C 820.08 497.53 848.20 493.36 866.04 507.96 C 875.50 514.97 880.08 527.11 879.99 538.65 C 856.22 539.33 832.44 538.87 808.67 539.02 C 809.21 551.55 809.96 564.71 815.99 576.03 C 823.60 593.75 846.39 601.04 863.88 594.90 C 873.14 591.95 876.46 582.28 882.02 575.30 C 881.20 583.53 877.00 591.36 870.70 596.68 C 857.42 606.72 839.50 606.54 823.97 603.08 C 812.79 600.23 803.42 592.49 796.64 583.37 C 783.31 561.80 785.42 531.07 804.25 513.27 M 823.20 507.22 C 815.55 514.03 811.49 523.93 810.51 533.97 C 827.72 535.76 845.07 535.14 862.31 533.92 C 860.61 525.29 859.69 516.09 854.12 508.87 C 846.57 500.27 831.41 498.92 823.20 507.22 Z" />
<path fill="#fdfeff" opacity="1.00" d=" M 976.30 501.64 C 988.07 500.93 999.88 500.80 1011.68 501.20 C 1012.49 524.80 1011.55 548.42 1012.10 572.03 C 1012.64 579.26 1012.76 587.44 1017.70 593.29 C 1027.85 601.11 1043.73 601.25 1053.29 592.31 C 1059.81 587.48 1060.42 578.69 1061.39 571.34 C 1062.36 554.63 1062.53 537.83 1061.59 521.12 C 1060.75 516.47 1060.97 510.49 1056.71 507.38 C 1053.03 504.89 1048.62 503.79 1044.59 502.08 C 1056.34 500.82 1068.18 500.91 1080.00 500.96 C 1080.12 527.65 1079.82 554.34 1080.00 581.03 C 1080.30 585.70 1080.54 590.75 1083.33 594.72 C 1086.42 598.69 1091.25 600.33 1095.58 602.49 C 1084.93 604.62 1074.04 604.99 1063.23 605.21 C 1062.84 602.57 1062.07 597.27 1061.69 594.63 C 1050.75 599.78 1039.57 606.02 1027.00 605.04 C 1013.92 605.91 997.75 599.29 994.71 585.35 C 992.74 564.72 995.03 543.96 993.61 523.31 C 992.76 518.50 992.53 513.24 989.94 508.96 C 986.03 505.53 980.80 504.13 976.30 501.64 Z" />
<path fill="#fdfeff" opacity="1.00" d=" M 510.21 584.80 C 518.07 587.28 525.82 590.09 533.35 593.44 C 518.53 614.51 500.27 633.01 486.75 655.03 C 478.31 653.83 469.90 652.41 461.54 650.77 C 474.73 626.63 495.38 607.84 510.21 584.80 Z" />
</g>
</svg>
